<svg xmlns="http://www.w3.org/2000/svg"  viewBox="0 0 32 32" width="64px" height="64px"><path fill="#333" d="M31,30h-5.941v-1c0-0.552-0.447-1-1-1s-1,0.448-1,1v1h-6.021v-1c0-0.552-0.447-1-1-1s-1,0.448-1,1v1H9.018	v-1c0-0.552-0.447-1-1-1s-1,0.448-1,1v1H2v-5h1c0.553,0,1-0.448,1-1s-0.447-1-1-1H2v-6h1c0.553,0,1-0.448,1-1s-0.447-1-1-1H2V9h1	c0.553,0,1-0.448,1-1S3.553,7,3,7H2V1c0-0.552-0.447-1-1-1S0,0.448,0,1v31h31c0.553,0,1-0.448,1-1S31.553,30,31,30z"/><path fill="#333" d="M31,5h-6c-0.553,0-1,0.448-1,1s0.447,1,1,1h3.693l-5.026,5.967l-5.144-1.995	c-0.428-0.167-0.902-0.13-1.301,0.104c-0.394,0.23-0.655,0.62-0.72,1.068l-1.188,8.316l-4.506-1.273	c-0.609-0.171-1.26,0.06-1.624,0.57l-4.747,6.646c-0.321,0.449-0.217,1.074,0.232,1.395c0.176,0.125,0.379,0.186,0.58,0.186	c0.313,0,0.619-0.146,0.814-0.419l4.541-6.357l4.721,1.334c0.417,0.118,0.864,0.049,1.227-0.187c0.359-0.234,0.6-0.61,0.659-1.03	l1.18-8.259l4.887,1.896c0.599,0.231,1.276,0.058,1.687-0.431L30,8.552V12c0,0.552,0.447,1,1,1s1-0.448,1-1V6	C32,5.448,31.553,5,31,5z"/></svg>