<svg fill="#000000" xmlns="http://www.w3.org/2000/svg"  viewBox="0 0 64 64" width="64px" height="64px"><path d="M45.863,30.634l-1.491-.563h0l-5-2c-.009,0-.017,0-.026-.005s-.019-.011-.03-.015L37,27.279v-2.8A9,9,0,0,0,41,17V10a8.009,8.009,0,0,0-8-8H31a8.009,8.009,0,0,0-8,8v2.09a6,6,0,1,0,2.3,10.9A9.06,9.06,0,0,0,27,24.478v2.8l-2.316.772-6,2-.037.013-1.507.569A11.045,11.045,0,0,0,10,40.93V53.17a5,5,0,0,0,4.995,5,5.109,5.109,0,0,0,.943-.088L18,57.688V61a1,1,0,0,0,1,1H45a8.009,8.009,0,0,0,8-8V40.93A11.044,11.044,0,0,0,45.863,30.634ZM32,24a7.008,7.008,0,0,1-7-7V13.721l10.73-3.577L39,13.414V17A7.008,7.008,0,0,1,32,24ZM25,10a6.006,6.006,0,0,1,6-6h2a6.006,6.006,0,0,1,6,6v.586L36.707,8.293a1,1,0,0,0-1.023-.242L25,11.613ZM22,22a4,4,0,0,1,0-8,4.055,4.055,0,0,1,1,.138V17a8.947,8.947,0,0,0,1.136,4.366A3.938,3.938,0,0,1,22,22Zm6.316,6.949A1,1,0,0,0,29,28V25.475a8.834,8.834,0,0,0,6,0V28a1,1,0,0,0,.684.949l1.573.524L32,35.481l-3.612-4.133a1.07,1.07,0,0,0-.088-.09l-1.559-1.784ZM12,40.93a9.036,9.036,0,0,1,5.843-8.425l1.488-.561,5.354-1.785,2.182,2.5c.025.028.051.054.078.08l4.3,4.921a1,1,0,0,0,1.5,0l6.534-7.468,4.342,1.738.019.007,1.512.57A9.035,9.035,0,0,1,51,40.93V44H44a1,1,0,0,0-1,1v8H40.808A2.971,2.971,0,0,0,41,52V49a2.951,2.951,0,0,0-1-2.212V41a1,1,0,0,0-1-1H24a1,1,0,0,0-1,1v6.7l-3,.572V45a1,1,0,0,0-1-1H12ZM38,46H32a.987.987,0,0,0-.187.018L25,47.316V42H38ZM15.563,56.118A3,3,0,0,1,12,53.17V46h6v3.48a1,1,0,0,0,1.188.982L32.094,48H38a1.006,1.006,0,0,1,1,1v3a1,1,0,0,1-1,1H25a3,3,0,0,0-2.749,1.839ZM20,57.305l2-.382V59a2.971,2.971,0,0,0,.192,1H20ZM45,60H25a1.006,1.006,0,0,1-1-1V56a1.288,1.288,0,0,1,.01-.147A1,1,0,0,1,25,55H43a2,2,0,0,0,2-2V46h6v8A6.006,6.006,0,0,1,45,60Z"/></svg>