<svg fill="#000000" xmlns="http://www.w3.org/2000/svg"  viewBox="0 0 50 50" width="50px" height="50px"><path d="M 31.875 3 C 31.394531 3.070313 31.035156 3.472656 31.019531 3.957031 C 31.003906 4.441406 31.335938 4.871094 31.8125 4.96875 C 34.414063 5.445313 37.570313 7.382813 40.125 9.90625 C 42.679688 12.429688 44.617188 15.546875 45.125 18.1875 C 45.230469 18.730469 45.753906 19.089844 46.296875 18.984375 C 46.839844 18.878906 47.199219 18.355469 47.09375 17.8125 C 46.46875 14.550781 44.296875 11.203125 41.53125 8.46875 C 38.765625 5.734375 35.410156 3.621094 32.1875 3.03125 C 32.085938 3.003906 31.980469 2.992188 31.875 3 Z M 30.78125 8 C 30.324219 8.074219 29.976563 8.449219 29.941406 8.90625 C 29.902344 9.367188 30.1875 9.792969 30.625 9.9375 C 34.753906 11.535156 38.679688 15.324219 40.0625 19.3125 C 40.128906 19.703125 40.417969 20.015625 40.796875 20.113281 C 41.179688 20.210938 41.582031 20.078125 41.828125 19.769531 C 42.074219 19.460938 42.117188 19.039063 41.9375 18.6875 C 40.3125 13.996094 36.082031 9.886719 31.375 8.0625 C 31.214844 8 31.042969 7.976563 30.875 8 C 30.84375 8 30.8125 8 30.78125 8 Z M 29.84375 13 C 29.402344 13.066406 29.058594 13.417969 29 13.859375 C 28.941406 14.300781 29.183594 14.726563 29.59375 14.90625 C 31.550781 15.808594 34.058594 18.140625 35.09375 20.40625 C 35.207031 20.773438 35.527344 21.042969 35.90625 21.097656 C 36.289063 21.152344 36.667969 20.980469 36.882813 20.660156 C 37.09375 20.339844 37.105469 19.925781 36.90625 19.59375 C 35.601563 16.738281 32.902344 14.246094 30.40625 13.09375 C 30.230469 13.007813 30.035156 12.976563 29.84375 13 Z M 20.0625 14.96875 C 19.914063 14.976563 19.84375 15 19.84375 15 C 19.578125 15.042969 19.34375 15.1875 19.1875 15.40625 L 17.1875 18.21875 C 16.976563 18.523438 16.953125 18.921875 17.125 19.25 C 17.125 19.25 18.050781 21.203125 18 22.96875 C 17.96875 24.03125 17.371094 25.316406 16.40625 26.28125 L 8.3125 34.28125 C 8.265625 34.320313 8.226563 34.359375 8.1875 34.40625 C 7.726563 35.019531 7.667969 35.59375 7.53125 36.34375 C 7.394531 37.09375 7.296875 37.953125 7.21875 38.78125 C 7.082031 40.199219 7.046875 41.332031 7.03125 41.6875 L 3.28125 45.40625 L 4.71875 46.8125 L 8.5625 43 C 9.109375 42.988281 10.097656 42.949219 11.375 42.84375 C 12.234375 42.773438 13.09375 42.648438 13.84375 42.5 C 14.21875 42.425781 14.558594 42.339844 14.875 42.21875 C 15.132813 42.121094 15.40625 41.957031 15.65625 41.6875 L 15.6875 41.71875 L 15.84375 41.5625 L 23.8125 33.71875 C 24.761719 32.769531 26.085938 32.050781 27.0625 32 C 28.785156 31.910156 30.5 32.875 30.5 32.875 C 30.832031 33.070313 31.242188 33.058594 31.5625 32.84375 L 34.5625 30.84375 C 34.78125 30.6875 34.925781 30.453125 34.96875 30.1875 C 34.96875 30.1875 35.046875 29.804688 35.03125 29.28125 C 35.015625 28.757813 34.925781 28.023438 34.65625 27.125 C 34.117188 25.328125 32.839844 22.902344 30.03125 20.09375 C 27.222656 17.285156 24.757813 15.976563 22.9375 15.40625 C 21.574219 14.980469 20.507813 14.949219 20.0625 14.96875 Z M 21.03125 17.03125 C 21.3125 17.046875 21.714844 17.117188 22.34375 17.3125 C 23.835938 17.78125 26.015625 18.890625 28.625 21.5 C 31.234375 24.109375 32.3125 26.261719 32.75 27.71875 C 32.96875 28.445313 33.019531 28.984375 33.03125 29.34375 C 33.035156 29.414063 33.03125 29.386719 33.03125 29.4375 L 30.875 30.84375 C 30.203125 30.5 28.84375 29.898438 26.9375 30 C 25.203125 30.089844 23.613281 31.074219 22.40625 32.28125 L 14.3125 40.28125 C 14.269531 40.308594 14.226563 40.339844 14.1875 40.375 C 14.039063 40.429688 13.777344 40.5 13.46875 40.5625 C 12.851563 40.683594 12.003906 40.777344 11.1875 40.84375 C 10.109375 40.933594 9.65625 40.917969 9.0625 40.9375 C 9.09375 40.371094 9.121094 39.992188 9.21875 38.96875 C 9.296875 38.171875 9.378906 37.34375 9.5 36.6875 C 9.621094 36.03125 9.902344 35.476563 9.8125 35.59375 L 17.8125 27.71875 C 19.101563 26.429688 19.953125 24.738281 20 23.03125 C 20.054688 21.078125 19.429688 19.601563 19.125 18.9375 L 20.5 17.0625 C 20.59375 17.050781 20.75 17.015625 21.03125 17.03125 Z M 20.875 28 C 20.652344 28.023438 20.441406 28.125 20.28125 28.28125 L 18.28125 30.28125 C 17.882813 30.679688 17.882813 31.320313 18.28125 31.71875 C 18.679688 32.117188 19.320313 32.117188 19.71875 31.71875 L 21.71875 29.71875 C 22.042969 29.417969 22.128906 28.941406 21.933594 28.546875 C 21.742188 28.148438 21.308594 27.929688 20.875 28 Z"/></svg>