<?xml version="1.0" encoding="utf-8"?>
<!DOCTYPE svg PUBLIC "-//W3C//DTD SVG 20010904//EN" "http://www.w3.org/TR/2001/REC-SVG-20010904/DTD/svg10.dtd">
<svg version="1.0" xmlns="http://www.w3.org/2000/svg" width="50px" height="50px" viewBox="0 0 50 50" preserveAspectRatio="xMidYMid meet">
 <g fill="#000000">
  <path d="M1 45.6 c0 -2.5 0.6 -4.8 1.4 -5.5 0.7 -0.6 1.6 -2.8 1.9 -4.9 0.5 -2.7 1.9 -5 5.2 -8.2 3.6 -3.5 4.5 -5.1 4.5 -7.8 0 -5.7 1.4 -7.2 6.9 -7.2 5.4 0 5.6 -0.2 6.6 -7.4 l0.7 -4.6 4.2 0 c8.5 0 17.6 9.1 17.6 17.5 l0 4.3 -4.6 0.7 c-7.2 1 -7.4 1.2 -7.4 6.6 0 5.4 -1.5 6.9 -7.1 6.9 -2.5 0 -4.4 1.1 -8.5 5 -3.8 3.6 -6.1 5 -8.2 5 -1.6 0 -3.7 0.9 -4.7 2 -1.1 1.2 -3.1 2 -5.2 2 -3.2 0 -3.3 -0.1 -3.3 -4.4z m26 -19.5 c0 -1.2 -2.9 -3.5 -3.6 -2.8 -0.7 0.6 1.7 3.6 2.9 3.7 0.4 0 0.7 -0.4 0.7 -0.9z"/>
 </g>
 <g fill="#ffffff">
  <path d="M0 25 l0 -25 25 0 25 0 0 25 0 25 -25 0 -25 0 0 -25z m11.3 18 c1.9 0 4.6 -1.7 8.8 -5.6 5.2 -4.7 6.5 -5.5 8.9 -5.1 4 0.9 6.5 -1.3 5.6 -4.8 -0.9 -3.7 -8.4 -11.2 -12.1 -12.1 -3.6 -0.9 -5.5 1.5 -4.9 5.9 0.5 2.8 -0.1 3.8 -4.6 8.2 -3.7 3.7 -5.2 6 -5.7 8.7 -0.3 2.1 -1.2 4.3 -1.9 4.9 -0.8 0.6 -1.4 1.8 -1.4 2.7 0 1.2 0.5 1.1 2.3 -0.6 1.3 -1.2 3.5 -2.2 5 -2.2z m25.7 -23.1 c0 -1.4 -5.5 -6.9 -6.9 -6.9 -1.7 0 -1.4 0.5 2.2 4.3 3.4 3.7 4.7 4.4 4.7 2.6z m5 -0.8 c0 -3.4 -10 -12.5 -11.8 -10.6 -0.4 0.4 -0.1 1 0.6 1.3 2.4 0.8 8.1 6.2 8.7 8.3 0.6 1.9 2.5 2.7 2.5 1z m5 -1.4 c0 -4.2 -10.5 -14.7 -14.7 -14.7 -2.5 0 -1.2 1.5 2.8 3.4 4 1.8 9.9 8.6 9.9 11.3 0 0.7 0.5 1.3 1 1.3 0.6 0 1 -0.6 1 -1.3z"/>
  <path d="M9 39 c0 -1.1 2.5 -4.8 5.6 -8.1 5.1 -5.5 5.6 -6.5 5.1 -9.6 -0.8 -4.6 1.3 -5.3 6.1 -2.1 3.9 2.6 8.2 9.2 6.9 10.5 -0.4 0.4 -2.3 0.6 -4.3 0.5 -3 -0.2 -4.3 0.5 -9.3 5.3 -6.1 5.8 -10.1 7.2 -10.1 3.5z m12 -8.5 c0.7 -0.9 1 -1.8 0.7 -2.2 -0.8 -0.7 -3.7 1.5 -3.7 2.8 0 1.4 1.6 1.1 3 -0.6z"/>
 </g>
</svg>