<svg data-name="Ebene 1" xmlns="http://www.w3.org/2000/svg" viewBox="0 0 760.531 291.272"><path d="M306.237 76.323h-19.392V6.433h16.766c21.613 0 27.472 14.14 27.472 34.34 0 16.663-4.95 35.55-24.846 35.55zm-1.314-59.387h-6.261v49.085h6.767c9.493 0 12.624-8.585 12.624-25.148 0-8.99-.908-23.937-13.13-23.937zm45.754 36.562v1.01c0 3.333.303 6.362 1.717 8.988a9.003 9.003 0 008.18 4.848c4.141 0 7.677-1.818 11.212-5.05l4.545 7.373a23.444 23.444 0 01-16.766 6.868c-13.433 0-21.11-10-21.11-26.967 0-8.786 1.718-15.25 5.455-20.099a17.199 17.199 0 0114.241-6.766c5.555 0 9.998 1.919 13.13 5.454 4.14 4.645 5.757 10.908 5.757 22.118v2.223zm13.433-17.675a6.029 6.029 0 00-5.858-3.737c-5.15 0-7.373 4.141-7.575 13.23h14.745c0-4.04-.404-7.474-1.312-9.493zm52.115 42.116a11.35 11.35 0 01-3.13-6.06 15.121 15.121 0 01-12.626 5.959c-8.685 0-14.14-4.848-14.14-18.078V25.723l11.514-1.818v36.864c0 4.545.606 7.676 5.757 7.676 3.333 0 5.352-2.121 7.777-5.656V25.723l11.413-1.717v37.268c0 5.858 1.01 8.888 2.728 11.413zm32.825-.101a18.547 18.547 0 01-6.566-1.212c-3.636-1.415-5.757-4.949-5.757-10.908V33.802h-4.645v-8.685h4.645a109.401 109.401 0 01.808-13.03l11.21-1.918c-.302 3.03-.504 9.292-.504 14.948h9.594l-1.918 8.685h-7.777V60.87c0 6.464 1.11 8.282 5.252 8.282a7.46 7.46 0 003.838-1.01l1.615 7.171a19.175 19.175 0 01-9.796 2.525zm31.31-.101a32.477 32.477 0 01-17.574-5.757l4.04-8.888c3.94 2.929 9.392 5.454 13.937 5.454 3.94 0 6.666-2.525 6.666-6.06 0-4.14-3.736-5.454-7.978-7.07l-3.738-1.413c-5.756-2.223-10.907-6.262-10.907-13.837 0-10 6.767-16.665 16.866-16.665a27.584 27.584 0 0115.251 4.242l-3.635 8.383c-3.637-2.222-6.97-3.636-10.606-3.636-3.534 0-5.857 2.222-5.857 5.05 0 4.04 2.12 5.454 6.868 7.17l4.14 1.515c5.455 2.02 11.01 6.162 11.01 14.14 0 10.605-7.474 17.372-18.483 17.372zm44.339-.202c-6.464 0-11.413-2.424-14.746-7.373-3.131-4.646-4.747-10.807-4.747-18.786 0-10.604 2.828-17.674 7.272-22.22a17.845 17.845 0 0113.028-5.454c5.657 0 9.292 2.02 13.03 5.657l-5.454 7.373c-2.222-2.324-4.545-3.637-7.373-3.637-2.727 0-4.95 1.414-6.363 4.95-1.414 3.635-1.718 7.372-1.718 13.432 0 10.403 2.324 16.765 8.08 16.765a10.707 10.707 0 008.686-4.645l5.354 7.17a18.666 18.666 0 01-15.05 6.768zm46.661-1.212v-34.34c0-3.837-.403-7.474-5.15-7.474-3.434 0-6.565 2.424-8.585 5.05v36.764H546.11v-60.7a61.441 61.441 0 00-.91-11.11l11.414-1.717a75.13 75.13 0 011.01 12.624v8.687c0 1.717-.1 3.535-.202 5.252a17.601 17.601 0 0112.927-5.252c8.484 0 12.322 5.454 12.322 13.433v38.783zm34.442-22.825v1.01c0 3.333.303 6.362 1.717 8.988a9.003 9.003 0 008.181 4.848c4.14 0 7.676-1.818 11.21-5.05l4.546 7.372a23.444 23.444 0 01-16.766 6.869c-13.433 0-21.11-10-21.11-26.967 0-8.786 1.718-15.25 5.455-20.099a17.199 17.199 0 0114.241-6.766c5.555 0 9.998 1.919 13.13 5.454 4.14 4.645 5.757 10.908 5.757 22.118v2.223zm13.433-17.675a6.029 6.029 0 00-5.859-3.737c-5.15 0-7.373 4.141-7.574 13.23h14.745c0-4.04-.404-7.474-1.312-9.493zm36.258 41.914a32.478 32.478 0 01-17.575-5.757l4.04-8.888c3.94 2.929 9.393 5.454 13.938 5.454 3.94 0 6.666-2.525 6.666-6.06 0-4.14-3.736-5.454-7.979-7.07l-3.737-1.413c-5.757-2.223-10.907-6.262-10.907-13.837 0-10 6.767-16.665 16.866-16.665a27.584 27.584 0 0115.251 4.242l-3.636 8.383c-3.636-2.222-6.968-3.636-10.605-3.636-3.534 0-5.858 2.222-5.858 5.05 0 4.04 2.122 5.454 6.869 7.17l4.14 1.515c5.454 2.02 11.01 6.162 11.01 14.14 0 10.605-7.475 17.372-18.483 17.372zM317.145 181.323V149.71h-18.483v31.613h-11.817v-69.89h11.817v27.571h18.483v-27.572h11.716v69.89zm34.843-22.825v1.01c0 3.333.304 6.362 1.718 8.988a9.003 9.003 0 008.18 4.848c4.14 0 7.676-1.818 11.211-5.05l4.545 7.373a23.444 23.444 0 01-16.765 6.868c-13.433 0-21.11-10-21.11-26.967 0-8.786 1.718-15.25 5.454-20.099a17.197 17.197 0 0114.241-6.766c5.555 0 9.998 1.919 13.13 5.454 4.141 4.645 5.757 10.908 5.757 22.118v2.223zm13.434-17.675a6.029 6.029 0 00-5.859-3.738c-5.15 0-7.373 4.142-7.575 13.231h14.746c0-4.04-.404-7.474-1.313-9.493zm44.843 0a6.175 6.175 0 00-3.333-1.01 7.2 7.2 0 00-7.272 7.07v34.44h-11.514V143.75a52.231 52.231 0 00-1.515-12.625l10.807-2.322a20.481 20.481 0 011.212 6.363v.404a10.828 10.828 0 0114.947-5.96zm35.45 40.5H415.62v-8.585l19.391-33.632h-18.28v-9.09h30.097v9.291l-18.988 32.926h19.998zm38.28 0h-30.097v-8.585l19.392-33.632h-18.282v-9.09h30.098v9.291l-18.987 32.926h19.997zm19.292-22.825v1.01c0 3.333.303 6.362 1.718 8.988a9.003 9.003 0 008.18 4.848c4.14 0 7.676-1.818 11.211-5.05l4.545 7.373a23.444 23.444 0 01-16.766 6.868c-13.432 0-21.109-10-21.109-26.967 0-8.786 1.718-15.25 5.454-20.099a17.198 17.198 0 0114.241-6.766c5.555 0 9.998 1.919 13.13 5.454 4.14 4.645 5.757 10.908 5.757 22.118v2.223zm13.433-17.675a6.029 6.029 0 00-5.858-3.738c-5.15 0-7.373 4.142-7.576 13.231h14.747c0-4.04-.404-7.474-1.313-9.493zm47.468 40.5v-34.541c0-3.94-.403-5.555-1.312-6.666a4.612 4.612 0 00-3.738-1.314c-2.221 0-5.554 1.617-8.281 4.545v37.976h-11.413V143.65a50.23 50.23 0 00-1.515-12.423l10.705-2.424a21.22 21.22 0 011.414 6.06 19.698 19.698 0 0113.535-5.757 12.288 12.288 0 019.292 3.636c2.322 2.526 2.726 5.96 2.726 9.393v39.187zm37.672 1.515a18.547 18.547 0 01-6.564-1.212c-3.636-1.414-5.757-4.949-5.757-10.908v-31.916h-4.646v-8.685h4.646a109.353 109.353 0 01.807-13.029l11.211-1.918c-.302 3.029-.505 9.29-.505 14.947h9.595l-1.919 8.685h-7.776v27.068c0 6.464 1.11 8.282 5.252 8.282a7.46 7.46 0 003.838-1.01l1.616 7.171a19.18 19.18 0 01-9.797 2.525zm39.895-42.015a6.17 6.17 0 00-3.332-1.01 7.2 7.2 0 00-7.272 7.07v34.44h-11.514V143.75a52.231 52.231 0 00-1.514-12.625l10.806-2.322a20.481 20.481 0 011.212 6.363v.404a10.829 10.829 0 0114.948-5.96zm39.188 42.116a11.35 11.35 0 01-3.13-6.06 15.121 15.121 0 01-12.626 5.959c-8.686 0-14.14-4.848-14.14-18.078v-34.037l11.514-1.818v36.864c0 4.545.606 7.676 5.757 7.676 3.333 0 5.353-2.121 7.777-5.656v-37.066l11.412-1.718v37.269c0 5.858 1.01 8.888 2.728 11.413zm68.174-1.616v-35.551c0-5.252-1.615-6.868-4.746-6.868-2.425 0-4.849 1.01-8.08 4.242v38.177h-11.413v-34.946c0-3.938 0-7.373-4.747-7.373-2.222 0-4.444 1.01-7.777 4.243v38.076h-11.413V143.65a50.23 50.23 0 00-1.515-12.423l10.706-2.424a21.995 21.995 0 011.212 5.858 15.317 15.317 0 0112.524-5.96c5.15 0 9.392 2.424 11.009 6.162a18.678 18.678 0 0113.735-6.161c8.686 0 11.918 6.464 11.918 14.039v38.58zm-412.378 105l-2.223-42.015c-.202-4.242-.505-13.635-.505-14.342-.202.909-1.616 9.696-2.424 13.433l-9.897 42.924h-10.706l-8.988-41.107c-1.112-5.252-2.424-14.038-2.627-15.25 0 .505-.201 11.21-.405 15.35l-2.12 41.007h-12.018l5.352-69.891h15.958l8.484 40.198c.808 4.04 1.919 12.422 2.121 13.635.1-.809 1.111-8.99 2.121-13.635l8.686-40.198h15.756l5.15 69.891zm52.319 1.615a11.347 11.347 0 01-3.13-6.06 15.121 15.121 0 01-12.626 5.96c-8.685 0-14.14-4.848-14.14-18.079v-34.036l11.514-1.818v36.864c0 4.544.606 7.675 5.757 7.675 3.333 0 5.353-2.12 7.777-5.656v-37.065l11.412-1.718v37.27c0 5.857 1.011 8.886 2.728 11.412zm-21.512-59.386a6.727 6.727 0 01-6.767-6.565 6.444 6.444 0 016.464-6.464 6.517 6.517 0 11.303 13.03zm19.998 0a6.727 6.727 0 01-6.768-6.565 6.444 6.444 0 016.464-6.464 6.517 6.517 0 11.303 13.03zm46.256 57.771v-34.54c0-3.94-.403-5.555-1.313-6.667a4.612 4.612 0 00-3.737-1.314c-2.221 0-5.554 1.617-8.281 4.545v37.976h-11.413v-37.672a50.227 50.227 0 00-1.514-12.423l10.706-2.424a21.258 21.258 0 011.413 6.06 19.698 19.698 0 0113.534-5.757 12.288 12.288 0 019.292 3.636c2.322 2.525 2.726 5.96 2.726 9.393v39.188zm41.814 1.211c-6.464 0-11.413-2.424-14.746-7.373-3.131-4.644-4.747-10.806-4.747-18.785 0-10.603 2.828-17.674 7.272-22.22a17.845 17.845 0 0113.029-5.453c5.656 0 9.291 2.02 13.029 5.656l-5.454 7.373c-2.222-2.323-4.545-3.637-7.373-3.637-2.727 0-4.95 1.414-6.363 4.949-1.414 3.637-1.718 7.373-1.718 13.434 0 10.402 2.324 16.765 8.08 16.765a10.705 10.705 0 008.686-4.646l5.354 7.172a18.665 18.665 0 01-15.05 6.765zm46.662-1.211v-34.34c0-3.837-.404-7.474-5.151-7.474-3.434 0-6.565 2.424-8.585 5.05v36.764h-11.514v-60.7a61.443 61.443 0 00-.91-11.11l11.414-1.717a75.143 75.143 0 011.01 12.625v8.686c0 1.717-.1 3.535-.202 5.252a17.601 17.601 0 0112.927-5.252c8.485 0 12.323 5.454 12.323 13.433v38.783zm34.44-22.826v1.01c0 3.334.304 6.363 1.718 8.988a9.002 9.002 0 008.18 4.85c4.142 0 7.677-1.818 11.212-5.05l4.545 7.373a23.447 23.447 0 01-16.766 6.867c-13.433 0-21.11-9.998-21.11-26.967 0-8.785 1.719-15.25 5.455-20.098a17.197 17.197 0 0114.241-6.767c5.555 0 9.998 1.92 13.13 5.454 4.14 4.646 5.757 10.91 5.757 22.118v2.223zm13.434-17.674a6.028 6.028 0 00-5.858-3.738c-5.15 0-7.374 4.143-7.576 13.23h14.747c0-4.039-.405-7.472-1.313-9.492zm47.468 40.5v-34.54c0-3.94-.404-5.555-1.313-6.667a4.612 4.612 0 00-3.737-1.314c-2.222 0-5.555 1.617-8.281 4.545v37.976h-11.413v-37.672a50.232 50.232 0 00-1.515-12.423l10.705-2.424a21.216 21.216 0 011.414 6.06 19.698 19.698 0 0113.534-5.757 12.288 12.288 0 019.292 3.636c2.323 2.525 2.727 5.96 2.727 9.393v39.188z" fill="#1d1d1b"/><path d="M95.859 0v247.428c0 41.033-37.32 62.89-62.885 19.69C14.106 235.368 5.137 183.2 1.322 121.963-.43 92.786 34.519 55.053 76.066 81.342V0zM76.066 122.168c0-11.855-5.258-21.856-14.741-27.216-15.777-8.97-41.55-1.546-42.685 29.07-1.237 32.376 7.218 100.728 32.89 140.005 7.731 11.855 24.536 13.61 24.536-10.31z" fill-rule="evenodd" fill="#4d85b2"/><path d="M107.407 0v290.833h19.69V133.51c0-39.898 30.517-53.714 49.59-30.723 23.916 28.865-7.526 122.888-38.352 187.943h20.825c37.115-77.218 56.702-147.53 39.28-188.974-11.96-28.351-45.052-41.752-71.343-22.268V.001z" fill="#c20831" fill-rule="evenodd"/></svg>